<svg xmlns="http://www.w3.org/2000/svg" viewBox="0 0 256 256">
  <defs>
    <linearGradient id="bg" x1="0" y1="0" x2="0" y2="1">
      <stop offset="0" stop-color="#f87171"/>
      <stop offset="1" stop-color="#7f1d1d"/>
    </linearGradient>
  </defs>
  <rect x="12" y="12" width="232" height="232" rx="28" fill="url(#bg)" stroke="#450a0a" stroke-width="6"/>
  <line x1="76" y1="44" x2="76" y2="140" stroke="#1c1917" stroke-width="5" stroke-linecap="round"/>
  <path d="M76 46 L140 52 L140 92 L76 86 Z" fill="#1c1917" stroke="#450a0a" stroke-width="5" stroke-linejoin="round"/>
  <circle cx="108" cy="70" r="9" fill="#f8fafc"/>
  <circle cx="104" cy="68" r="2" fill="#1c1917"/>
  <circle cx="114" cy="68" r="2" fill="#1c1917"/>
  <path d="M102 74 L108 80 L114 74" stroke="#1c1917" stroke-width="2" fill="none"/>
  <rect x="80" y="140" width="96" height="72" fill="#3f1d0a" stroke="#1c1917" stroke-width="6"/>
  <rect x="68" y="130" width="120" height="16" fill="#1c1917"/>
  <rect x="68" y="130" width="12" height="16" fill="#7f1d1d"/>
  <rect x="92" y="130" width="12" height="16" fill="#7f1d1d"/>
  <rect x="116" y="130" width="12" height="16" fill="#7f1d1d"/>
  <rect x="140" y="130" width="12" height="16" fill="#7f1d1d"/>
  <rect x="164" y="130" width="12" height="16" fill="#7f1d1d"/>
  <rect x="118" y="160" width="20" height="32" fill="#450a0a" stroke="#1c1917" stroke-width="4"/>
  <rect x="90" y="160" width="16" height="16" fill="#facc15" stroke="#1c1917" stroke-width="3"/>
  <rect x="150" y="160" width="16" height="16" fill="#facc15" stroke="#1c1917" stroke-width="3"/>
</svg>
