<svg xmlns="http://www.w3.org/2000/svg" viewBox="0 0 256 256">
  <defs>
    <linearGradient id="bg" x1="0" y1="0" x2="0" y2="1">
      <stop offset="0" stop-color="#fb7185"/>
      <stop offset="1" stop-color="#9f1239"/>
    </linearGradient>
  </defs>
  <rect x="12" y="12" width="232" height="232" rx="28" fill="url(#bg)" stroke="#450a0a" stroke-width="6"/>
  <path d="M48 156 Q48 80 128 60 Q208 80 208 156 Q208 210 128 220 Q48 210 48 156 Z"
        fill="#1c1917" stroke="#450a0a" stroke-width="6" stroke-linejoin="round"/>
  <path d="M76 64 L88 92 L108 80 Z" fill="#1c1917" stroke="#450a0a" stroke-width="5" stroke-linejoin="round"/>
  <path d="M180 64 L168 92 L148 80 Z" fill="#1c1917" stroke="#450a0a" stroke-width="5" stroke-linejoin="round"/>
  <circle cx="128" cy="130" r="26" fill="#facc15" stroke="#78350f" stroke-width="5"/>
  <circle cx="128" cy="130" r="10" fill="#7f1d1d"/>
  <path d="M72 178 L88 164 L96 180 L108 168 L116 184 L128 172 L140 184 L148 168 L156 180 L168 164 L184 178 L184 188 L72 188 Z"
        fill="#fef3c7" stroke="#450a0a" stroke-width="5" stroke-linejoin="round"/>
</svg>
