<svg xmlns="http://www.w3.org/2000/svg" viewBox="0 0 256 256">
  <defs>
    <linearGradient id="bg" x1="0" y1="0" x2="0" y2="1">
      <stop offset="0" stop-color="#fbbf24"/>
      <stop offset="1" stop-color="#78350f"/>
    </linearGradient>
  </defs>
  <rect x="12" y="12" width="232" height="232" rx="28" fill="url(#bg)" stroke="#451a03" stroke-width="6"/>
  <rect x="120" y="36" width="16" height="168" fill="#fef3c7" opacity="0.85"/>
  <line x1="128" y1="24" x2="100" y2="60" stroke="#fef3c7" stroke-width="5" stroke-linecap="round" opacity="0.85"/>
  <line x1="128" y1="24" x2="156" y2="60" stroke="#fef3c7" stroke-width="5" stroke-linecap="round" opacity="0.85"/>
  <line x1="128" y1="24" x2="128" y2="44" stroke="#fef3c7" stroke-width="5" stroke-linecap="round" opacity="0.85"/>
  <path d="M40 208 L40 150 Q40 130 58 130 L92 130 Q108 130 108 146 L108 208 Z"
        fill="#1c1917" stroke="#451a03" stroke-width="5" stroke-linejoin="round"/>
  <path d="M148 208 L148 146 Q148 130 164 130 L198 130 Q216 130 216 150 L216 208 Z"
        fill="#1c1917" stroke="#451a03" stroke-width="5" stroke-linejoin="round"/>
  <rect x="56" y="150" width="14" height="14" fill="#facc15" stroke="#451a03" stroke-width="3"/>
  <rect x="78" y="150" width="14" height="14" fill="#facc15" stroke="#451a03" stroke-width="3"/>
  <rect x="166" y="150" width="14" height="14" fill="#facc15" stroke="#451a03" stroke-width="3"/>
  <rect x="186" y="150" width="14" height="14" fill="#facc15" stroke="#451a03" stroke-width="3"/>
  <rect x="112" y="180" width="32" height="28" fill="#b45309" stroke="#451a03" stroke-width="4"/>
</svg>
