<svg xmlns="http://www.w3.org/2000/svg" viewBox="0 0 256 256" fill="none">
  <defs>
    <linearGradient id="deckerBg" x1="0%" y1="0%" x2="0%" y2="100%">
      <stop offset="0%" stop-color="#66bb6a"/>
      <stop offset="100%" stop-color="#1b5e20"/>
    </linearGradient>
    <linearGradient id="deckerSilver" x1="0%" y1="0%" x2="0%" y2="100%">
      <stop offset="0%" stop-color="#ffffff"/>
      <stop offset="100%" stop-color="#b0bec5"/>
    </linearGradient>
  </defs>
  <rect width="256" height="256" rx="32" fill="url(#deckerBg)"/>
  <path d="M110 24 L146 24 L146 48 L128 58 L110 48 Z" fill="#00c853" stroke="#004d1a" stroke-width="2"/>
  <text x="128" y="46" text-anchor="middle" font-size="18" font-weight="900" fill="#fafafa" font-family="Arial">D</text>
  <ellipse cx="128" cy="82" rx="44" ry="50" fill="url(#deckerSilver)" stroke="#263238" stroke-width="2"/>
  <path d="M96 76 Q110 64 126 78 L122 92 Q108 92 100 86 Z" fill="#ffeb3b" stroke="#004d1a" stroke-width="2"/>
  <path d="M160 76 Q146 64 130 78 L134 92 Q148 92 156 86 Z" fill="#ffeb3b" stroke="#004d1a" stroke-width="2"/>
  <path d="M128 92 L128 120" stroke="#00c853" stroke-width="3"/>
  <path d="M102 110 Q128 124 154 110" stroke="#263238" stroke-width="3" fill="none"/>
  <rect x="116" y="128" width="24" height="10" fill="#546e7a"/>
  <path d="M80 140 L176 140 L184 180 L170 224 L86 224 L72 180 Z" fill="url(#deckerSilver)" stroke="#263238" stroke-width="2"/>
  <path d="M96 146 L128 166 L160 146" stroke="#00c853" stroke-width="8" fill="none" stroke-linecap="round"/>
  <path d="M88 178 L128 196 L168 178" stroke="#00c853" stroke-width="4" fill="none" stroke-linecap="round"/>
  <rect x="114" y="168" width="28" height="28" rx="4" fill="#00c853" stroke="#fafafa" stroke-width="3"/>
  <rect x="120" y="174" width="16" height="16" fill="#fafafa"/>
  <rect x="82" y="212" width="92" height="12" fill="#00c853"/>
  <circle cx="78" cy="144" r="12" fill="#00c853"/>
  <circle cx="178" cy="144" r="12" fill="#00c853"/>
  <rect x="62" y="152" width="18" height="62" rx="6" fill="url(#deckerSilver)" stroke="#263238" stroke-width="2"/>
  <rect x="176" y="152" width="18" height="62" rx="6" fill="url(#deckerSilver)" stroke="#263238" stroke-width="2"/>
  <rect x="96" y="228" width="22" height="22" rx="6" fill="url(#deckerSilver)" stroke="#263238" stroke-width="2"/>
  <rect x="138" y="228" width="22" height="22" rx="6" fill="url(#deckerSilver)" stroke="#263238" stroke-width="2"/>
</svg>
