<svg xmlns="http://www.w3.org/2000/svg" viewBox="0 0 256 256" fill="none">
  <defs>
    <linearGradient id="tigaBg" x1="0%" y1="0%" x2="0%" y2="100%">
      <stop offset="0%" stop-color="#7e57c2"/>
      <stop offset="100%" stop-color="#311b92"/>
    </linearGradient>
    <linearGradient id="tigaSilver" x1="0%" y1="0%" x2="0%" y2="100%">
      <stop offset="0%" stop-color="#f5f5f5"/>
      <stop offset="100%" stop-color="#b0bec5"/>
    </linearGradient>
  </defs>
  <rect width="256" height="256" rx="32" fill="url(#tigaBg)"/>
  <!-- 头顶 V 冠 -->
  <path d="M100 30 L128 20 L156 30 L148 60 L128 50 L108 60 Z" fill="#ffd740" stroke="#7a5a00" stroke-width="2"/>
  <!-- 头 -->
  <ellipse cx="128" cy="80" rx="42" ry="48" fill="url(#tigaSilver)" stroke="#37474f" stroke-width="2"/>
  <!-- 面罩红线 -->
  <path d="M92 82 L128 74 L164 82" stroke="#c62828" stroke-width="4" fill="none" stroke-linecap="round"/>
  <!-- 眼睛 -->
  <path d="M102 78 Q112 72 124 80 Q120 88 108 86 Z" fill="#fff176" stroke="#7a5a00" stroke-width="2"/>
  <path d="M154 78 Q144 72 132 80 Q136 88 148 86 Z" fill="#fff176" stroke="#7a5a00" stroke-width="2"/>
  <!-- 下巴线条 -->
  <path d="M110 110 L128 120 L146 110" stroke="#37474f" stroke-width="3" fill="none"/>
  <!-- 脖子 -->
  <rect x="116" y="122" width="24" height="10" fill="#546e7a"/>
  <!-- 躯干 -->
  <path d="M80 135 L176 135 L186 180 L170 220 L86 220 L70 180 Z" fill="url(#tigaSilver)" stroke="#37474f" stroke-width="2"/>
  <!-- 胸部红色条纹 -->
  <path d="M100 140 L128 156 L156 140" stroke="#c62828" stroke-width="6" fill="none" stroke-linecap="round"/>
  <!-- 色彩计时器（紫色圆） -->
  <circle cx="128" cy="172" r="14" fill="#7c4dff" stroke="#ffd740" stroke-width="3"/>
  <circle cx="128" cy="172" r="6" fill="#ffd740"/>
  <!-- 腰带 -->
  <rect x="82" y="210" width="92" height="12" fill="#c62828"/>
  <!-- 肩膀 -->
  <circle cx="78" cy="140" r="12" fill="#c62828"/>
  <circle cx="178" cy="140" r="12" fill="#c62828"/>
  <!-- 手臂 -->
  <rect x="62" y="148" width="18" height="62" rx="6" fill="url(#tigaSilver)" stroke="#37474f" stroke-width="2"/>
  <rect x="176" y="148" width="18" height="62" rx="6" fill="url(#tigaSilver)" stroke="#37474f" stroke-width="2"/>
  <!-- 腿 -->
  <rect x="96" y="224" width="22" height="22" rx="6" fill="url(#tigaSilver)" stroke="#37474f" stroke-width="2"/>
  <rect x="138" y="224" width="22" height="22" rx="6" fill="url(#tigaSilver)" stroke="#37474f" stroke-width="2"/>
</svg>
