<svg xmlns="http://www.w3.org/2000/svg" viewBox="0 0 256 256" fill="none">
  <defs>
    <linearGradient id="zeroBg" x1="0%" y1="0%" x2="0%" y2="100%">
      <stop offset="0%" stop-color="#42a5f5"/>
      <stop offset="100%" stop-color="#0d47a1"/>
    </linearGradient>
    <linearGradient id="zeroSilver" x1="0%" y1="0%" x2="0%" y2="100%">
      <stop offset="0%" stop-color="#f5f5f5"/>
      <stop offset="100%" stop-color="#b0bec5"/>
    </linearGradient>
  </defs>
  <rect width="256" height="256" rx="32" fill="url(#zeroBg)"/>
  <path d="M88 18 L102 6 L112 22 L108 36 L94 38 Z" fill="#fafafa" stroke="#263238" stroke-width="2"/>
  <path d="M168 18 L154 6 L144 22 L148 36 L162 38 Z" fill="#fafafa" stroke="#263238" stroke-width="2"/>
  <ellipse cx="128" cy="80" rx="42" ry="48" fill="url(#zeroSilver)" stroke="#263238" stroke-width="2"/>
  <path d="M128 42 L128 124" stroke="#d50000" stroke-width="4"/>
  <path d="M100 74 L122 70 L118 90 L104 88 Z" fill="#ffeb3b" stroke="#1a237e" stroke-width="2"/>
  <path d="M156 74 L134 70 L138 90 L152 88 Z" fill="#ffeb3b" stroke="#1a237e" stroke-width="2"/>
  <path d="M92 100 L164 100" stroke="#d50000" stroke-width="4"/>
  <path d="M100 114 L156 114" stroke="#d50000" stroke-width="3"/>
  <rect x="116" y="124" width="24" height="10" fill="#37474f"/>
  <path d="M80 136 L176 136 L186 180 L170 220 L86 220 L70 180 Z" fill="url(#zeroSilver)" stroke="#263238" stroke-width="2"/>
  <path d="M102 140 L128 170 L154 140" stroke="#1565c0" stroke-width="8" fill="none" stroke-linecap="round"/>
  <path d="M128 172 L140 184 L128 196 L116 184 Z" fill="#42a5f5" stroke="#d50000" stroke-width="3"/>
  <rect x="82" y="210" width="92" height="12" fill="#d50000"/>
  <circle cx="78" cy="140" r="12" fill="#d50000"/>
  <circle cx="178" cy="140" r="12" fill="#d50000"/>
  <rect x="62" y="148" width="18" height="62" rx="6" fill="url(#zeroSilver)" stroke="#263238" stroke-width="2"/>
  <rect x="176" y="148" width="18" height="62" rx="6" fill="url(#zeroSilver)" stroke="#263238" stroke-width="2"/>
  <rect x="96" y="224" width="22" height="22" rx="6" fill="url(#zeroSilver)" stroke="#263238" stroke-width="2"/>
  <rect x="138" y="224" width="22" height="22" rx="6" fill="url(#zeroSilver)" stroke="#263238" stroke-width="2"/>
</svg>
