<svg xmlns="http://www.w3.org/2000/svg" viewBox="0 0 256 256" fill="none">
  <rect width="256" height="256" rx="32" fill="#12051a"/>
  <path d="M64 240 L72 150 L110 100 L146 100 L184 150 L192 240 L148 240 L140 180 L116 180 L108 240 Z" fill="#4a148c" stroke="#0a0014" stroke-width="3"/>
  <path d="M88 60 L100 30 L108 52 L118 20 L128 48 L138 20 L148 52 L156 30 L168 60" fill="#ffc400" stroke="#0a0014" stroke-width="2"/>
  <ellipse cx="128" cy="92" rx="38" ry="32" fill="#6a1b9a" stroke="#0a0014" stroke-width="3"/>
  <circle cx="112" cy="92" r="7" fill="#ffc400" stroke="#0a0014" stroke-width="2"/>
  <circle cx="144" cy="92" r="7" fill="#ffc400" stroke="#0a0014" stroke-width="2"/>
  <circle cx="112" cy="92" r="3" fill="#d50000"/>
  <circle cx="144" cy="92" r="3" fill="#d50000"/>
  <path d="M110 120 L128 130 L146 120" stroke="#ffc400" stroke-width="3" fill="none"/>
  <path d="M60 180 L30 160 L50 220" fill="#4a148c" stroke="#0a0014" stroke-width="2"/>
  <path d="M196 180 L226 160 L206 220" fill="#4a148c" stroke="#0a0014" stroke-width="2"/>
</svg>
