<svg xmlns="http://www.w3.org/2000/svg" viewBox="0 0 256 256" fill="none">
  <rect width="256" height="256" rx="32" fill="#1a1a2e"/>
  <path d="M80 240 L88 160 L128 110 L168 160 L176 240 L160 240 L150 180 L106 180 L96 240 Z" fill="#3a3a56" stroke="#0d0d1c" stroke-width="3"/>
  <ellipse cx="128" cy="90" rx="36" ry="32" fill="#5a5a7a" stroke="#0d0d1c" stroke-width="3"/>
  <path d="M92 60 L80 40 L100 50 Z" fill="#5a5a7a" stroke="#0d0d1c" stroke-width="2"/>
  <path d="M164 60 L176 40 L156 50 Z" fill="#5a5a7a" stroke="#0d0d1c" stroke-width="2"/>
  <circle cx="114" cy="88" r="6" fill="#ffeb3b"/>
  <circle cx="142" cy="88" r="6" fill="#ffeb3b"/>
  <path d="M48 160 L20 120 L36 170 L60 180" fill="#3a3a56" stroke="#0d0d1c" stroke-width="3"/>
  <path d="M208 160 L236 120 L220 170 L196 180" fill="#3a3a56" stroke="#0d0d1c" stroke-width="3"/>
  <path d="M20 120 L10 100 L26 115 M36 170 L30 190" stroke="#0d0d1c" stroke-width="2" fill="none"/>
  <path d="M236 120 L246 100 L230 115 M220 170 L226 190" stroke="#0d0d1c" stroke-width="2" fill="none"/>
</svg>
