<svg xmlns="http://www.w3.org/2000/svg" viewBox="0 0 256 256" fill="none">
  <rect width="256" height="256" rx="32" fill="#2a2a14"/>
  <path d="M80 240 L88 150 L128 100 L168 150 L176 240 L140 240 L132 180 L124 180 L116 240 Z" fill="#b59540" stroke="#3a2e0a" stroke-width="3"/>
  <ellipse cx="128" cy="90" rx="28" ry="28" fill="#8a6f28" stroke="#3a2e0a" stroke-width="3"/>
  <path d="M104 70 L94 40 L108 62" fill="#fafafa" stroke="#3a2e0a" stroke-width="2"/>
  <path d="M152 70 L162 40 L148 62" fill="#fafafa" stroke="#3a2e0a" stroke-width="2"/>
  <path d="M108 48 L100 24 L116 30 L110 52" fill="#fff59d" stroke="#3a2e0a" stroke-width="2"/>
  <path d="M148 48 L156 24 L140 30 L146 52" fill="#fff59d" stroke="#3a2e0a" stroke-width="2"/>
  <circle cx="116" cy="90" r="6" fill="#ffeb3b" stroke="#3a2e0a" stroke-width="2"/>
  <circle cx="140" cy="90" r="6" fill="#ffeb3b" stroke="#3a2e0a" stroke-width="2"/>
  <path d="M100 170 L128 190 L156 170" stroke="#fff59d" stroke-width="3" fill="none"/>
  <path d="M200 220 Q220 180 240 200 Q230 230 210 240" stroke="#b59540" stroke-width="6" fill="none"/>
</svg>
